<?xml version="1.0" encoding="utf-8"?>
<svg version="1.1" xmlns:xlink="http://www.w3.org/1999/xlink" width="30px" height="30px" xmlns="http://www.w3.org/2000/svg">
  <g transform="matrix(1 0 0 1 -140 -53 )">
    <path d="M 155 53  C 163.4 53  170 59.6  170 68  C 170 76.4  163.4 83  155 83  C 146.6 83  140 76.4  140 68  C 140 59.6  146.6 53  155 53  Z " fill-rule="nonzero" fill="#2f74dd" stroke="none" />
    <path d="M 155 53.5  C 163.12 53.5  169.5 59.88  169.5 68  C 169.5 76.12  163.12 82.5  155 82.5  C 146.88 82.5  140.5 76.12  140.5 68  C 140.5 59.88  146.88 53.5  155 53.5  Z " stroke-width="1" stroke="#f98e7d" fill="none" />
  </g>
</svg>