<?xml version="1.0" encoding="utf-8"?>
<svg version="1.1" xmlns:xlink="http://www.w3.org/1999/xlink" width="40px" height="39px" xmlns="http://www.w3.org/2000/svg">
  <g transform="matrix(1 0 0 1 -242 -759 )">
    <path d="M 38.6538461538462 13.7678638941399  C 39.551282051282 13.9130434782609  40 14.2840579710145  40 14.8809073724008  C 40 15.2357908002521  39.7916666666667 15.622936357908  39.375 16.0423440453686  L 30.6490384615385 24.6079395085065  L 32.7163461538462 36.7062381852552  C 32.7323717948718 36.8191556395715  32.7403846153846 36.9804662885948  32.7403846153846 37.1901701323251  C 32.7403846153846 37.5289224952741  32.65625 37.8152488972904  32.4879807692308 38.0491493383743  C 32.3197115384615 38.2830497794581  32.0753205128205 38.4  31.7548076923077 38.4  C 31.4503205128205 38.4  31.1298076923077 38.303213610586  30.7932692307692 38.109640831758  L 20 32.3992438563326  L 9.20673076923077 38.109640831758  C 8.85416666666666 38.303213610586  8.53365384615384 38.4  8.24519230769232 38.4  C 7.90865384615384 38.4  7.65625 38.2830497794581  7.48798076923077 38.0491493383743  C 7.31971153846155 37.8152488972904  7.23557692307693 37.5289224952741  7.23557692307693 37.1901701323251  C 7.23557692307693 37.0933837429111  7.25160256410257 36.9320730938878  7.28365384615384 36.7062381852552  L 9.35096153846155 24.6079395085065  L 0.600961538461547 16.0423440453686  C 0.200320512820525 15.6068052930057  0 15.2196597353498  0 14.8809073724008  C 0 14.2840579710145  0.448717948717956 13.9130434782609  1.34615384615384 13.7678638941399  L 13.4134615384615 12.0015122873345  L 18.8221153846154 0.992060491493362  C 19.1266025641026 0.330686830497825  19.5192307692308 0  20 0  C 20.4807692307692 0  20.8733974358974 0.330686830497825  21.1778846153846 0.992060491493362  L 26.5865384615385 12.0015122873345  L 38.6538461538462 13.7678638941399  Z " fill-rule="nonzero" fill="#ffffff" stroke="none" transform="matrix(1 0 0 1 242 759 )" />
  </g>
</svg>