<?xml version="1.0" encoding="utf-8"?>
<svg version="1.1" xmlns:xlink="http://www.w3.org/1999/xlink" width="33px" height="39px" xmlns="http://www.w3.org/2000/svg">
  <g transform="matrix(1 0 0 1 -323 -759 )">
    <path d="M 32.780859375 28.1962890625  C 32.926953125 29.4742838541666  33 30.8326822916666  33 32.271484375  C 33 34.1165364583334  32.462890625 35.69921875  31.388671875 37.01953125  C 30.314453125 38.33984375  29.02109375 39  27.50859375 39  L 5.49140625000001 39  C 3.97890625000002 39  2.685546875 38.33984375  1.611328125 37.01953125  C 0.537109375 35.69921875  0 34.1165364583334  0 32.271484375  C 0 30.8326822916666  0.0730468749999886 29.4742838541666  0.219140625000023 28.1962890625  C 0.365234375 26.9182942708334  0.635937500000011 25.6318359375  1.03125 24.3369140625  C 1.42656249999999 23.0419921875  1.92929687499998 21.9332682291666  2.53945312500002 21.0107421875  C 3.14960937500001 20.0882161458334  3.95742187500002 19.3349609375  4.962890625 18.7509765625  C 5.96835937499998 18.1669921875  7.12421875000001 17.875  8.43046874999999 17.875  C 10.68203125 20.0416666666666  13.371875 21.125  16.5 21.125  C 19.628125 21.125  22.31796875 20.0416666666666  24.56953125 17.875  C 25.87578125 17.875  27.031640625 18.1669921875  28.037109375 18.7509765625  C 29.042578125 19.3349609375  29.850390625 20.0882161458334  30.460546875 21.0107421875  C 31.070703125 21.9332682291666  31.5734375 23.0419921875  31.96875 24.3369140625  C 32.3640625 25.6318359375  32.634765625 26.9182942708334  32.780859375 28.1962890625  Z M 23.499609375 2.8564453125  C 25.433203125 4.7607421875  26.4 7.05859375  26.4 9.75  C 26.4 12.44140625  25.433203125 14.7392578125  23.499609375 16.6435546875  C 21.566015625 18.5478515625  19.2328125 19.5  16.5 19.5  C 13.7671875 19.5  11.433984375 18.5478515625  9.50039062500002 16.6435546875  C 7.56679687500002 14.7392578125  6.60000000000002 12.44140625  6.60000000000002 9.75  C 6.60000000000002 7.05859375  7.56679687500002 4.7607421875  9.50039062500002 2.8564453125  C 11.433984375 0.9521484375  13.7671875 0  16.5 0  C 19.2328125 0  21.566015625 0.9521484375  23.499609375 2.8564453125  Z " fill-rule="nonzero" fill="#ffffff" stroke="none" transform="matrix(1 0 0 1 323 759 )" />
  </g>
</svg>