<?xml version="1.0" encoding="utf-8"?>
<svg version="1.1" xmlns:xlink="http://www.w3.org/1999/xlink" width="50px" height="51px" xmlns="http://www.w3.org/2000/svg">
  <g transform="matrix(1 0 0 1 -81 -750 )">
    <path d="M 0.0853069065411205 24.5733097232496  C 0.0853069065411205 31.5474075053619  3.03557222947524 37.8372887799757  7.76616823274287 42.3102501374041  C 7.72097349723418 43.0897279605929  7.61765598130776 43.8461280977904  7.42053000728055 44.6221284614463  C 7.26849192541565 45.2217267869762  7.35621031277407 46.9443337865257  6.82648100154 47.307464863815  C 5.73390094170139 48.0552240409609  3.51668781811725 47.4881873819668  2.25647054784574 47.5396116320298  C 0.0245130424644344 47.6312901106257  0.015751888063221 51.0575361486361  2.25647054784574 50.9658576700402  C 4.43201476635096 50.8768136304843  6.90981881169782 51.4096025819567  8.82573369855749 50.0973358072955  C 10.0685355033729 49.2467281300235  10.415883222377 47.8145416902562  10.6200608572637 46.4200804175431  C 10.6991249335672 45.8779128630877  10.7919718015508 45.3476529730937  10.8849255128807 44.8200275221395  C 14.8981752887128 47.5464611735341  19.759120174535 49.1465140689374  25.0004273733854 49.1465140689374  C 30.2156647957249 49.1465140689374  35.0549204822369 47.5635323385142  39.0559901165843 44.8619677916581  C 39.057699610126 45.1549174129188  39.0559901165843 45.4478670341795  39.0734055820404 45.741659675933  C 39.1567433921982 47.1155723241332  39.882850774035 48.1614446230583  41.079603096571 48.8304867616856  C 43.1240505290971 49.9740440602181  45.7190617253967 49.5800373573787  47.9606351319501 49.6819374594503  C 50.2013537917326 49.7838375615219  50.1908831437897 46.3575915235116  47.9606351319501 46.2556914214399  C 46.4929280830548 46.1888820473825  45.0042797382737 46.3507419820073  43.5521718179464 46.075811923781  C 42.5256209461559 45.8813903226205  42.5012606631867 45.7100464074516  42.5317110168983 44.7139123176039  C 42.5594902869509 43.7888027042775  42.5994496984881 42.8860331340114  42.5899406406623 41.9746226036935  C 47.1139016120771 37.5255819527497  49.9146930934589 31.372059242852  49.9146930934589 24.5734151008113  C 49.9146930934589 19.5770433948929  48.3992270687424 14.9327381222957  45.8023995355546 11.0533685693861  C 46.0464297386322 10.7844450321711  46.2115027087526 10.4228946183059  46.2235760068908 9.95786343894497  C 46.2869341112801 7.61510948935279  48.0509177596211 4.2779074908982  44.661205753124 3.27924433957207  C 43.338485125234 2.8894527391966  42.0306157224877 3.00515730183849  40.6801158245451 3.16701723646304  C 39.6657450942392 3.28777992206187  38.637484728907 3.34773975461496  37.6082627734576 3.38198746213629  C 33.9084913758347 1.23607879762142  29.6016360842157 0  24.9995726266146 0  C 20.6579932474299 0  16.577004790008 1.0972965489882  13.0223266567367 3.02370375268094  C 10.3299811719066 2.62116146735161  7.63507144676379 2.153390471389  4.94283280528001 2.84551029600766  C 4.2002715481043 3.0365598151966  3.66359741935699 3.74406476380955  3.66787115321128 4.49783046196683  C 3.68005129469594 6.40716650067975  4.7413262540521 8.08425039361612  4.75350639553676 9.9584957043146  C 4.75436114230763 10.0527032443892  4.76910552410473 10.1366891609879  4.78128566558937 10.2223611185725  C 1.83016559588444 14.2610615446285  0.0853069065411205 19.2153876034663  0.0853069065411205 24.5733097232496  Z M 29.4461790152675 9.07711777905422  C 29.4461790152675 7.9001557934929  30.413645516523 6.94680499365677  31.6069788519754 6.94680499365677  C 32.800312187428 6.94680499365677  33.7669239419127 7.90099881398589  33.7669239419127 9.07711777905422  C 33.7669239419127 10.2532367441228  32.7994574406572 11.2082735849447  31.6069788519754 11.2082735849447  C 30.413645516523 11.2082735849447  29.4461790152675 10.2540797646154  29.4461790152675 9.07711777905422  Z M 14.1364890725394 9.07711777905422  C 14.1364890725394 7.9001557934929  15.1032076703704 6.94680499365677  16.2964341624765 6.94680499365677  C 17.4897674979291 6.94680499365677  18.4572339991846 7.90099881398589  18.4572339991846 9.07711777905422  C 18.4572339991846 10.2532367441228  17.4897674979291 11.2082735849447  16.2964341624765 11.2082735849447  C 15.103100827024 11.2082735849447  14.1364890725394 10.2540797646154  14.1364890725394 9.07711777905422  Z M 3.29616315123806 22.4155987718349  C 3.29616315123806 17.1819167971832  5.22671557654843 15.1449685313675  8.42015635578929 14.4862533937774  L 11.946200472237 28.8919983304887  L 23.0931667975807 14.9298929281325  C 23.6394568275 14.9461210726196  24.1891658445027 14.9581341146425  24.7459265223649 14.9581341146425  C 25.8410708225161 14.9581341146425  26.9162354168986 14.9222003661354  27.9671465716584 14.8656126155539  L 35.259846020548 26.3119341121629  L 42.4074522050859 14.8758342390294  C 44.7940120326447 15.8198064358829  46.1957967368382 17.9578117832776  46.1957967368382 22.4153880167116  C 46.1957967368382 30.9597168442933  41.0569523071435 38.3159136647837  33.6627516792154 41.6548017042239  L 24.9995726266146 31.8008405410209  L 18.2670528426705 42.5869716141776  C 9.5874199147309 39.8776091277631  3.29616315123806 31.872181150227  3.29616315123806 22.4155987718349  Z " fill-rule="nonzero" fill="#ffffff" stroke="none" transform="matrix(1 0 0 1 81 750 )" />
  </g>
</svg>