<?xml version="1.0" encoding="utf-8"?>
<svg version="1.1" xmlns:xlink="http://www.w3.org/1999/xlink" width="10px" height="10px" xmlns="http://www.w3.org/2000/svg">
  <g transform="matrix(1 0 0 1 -474 -616 )">
    <path d="M 479 616  C 481.8 616  484 618.2  484 621  C 484 623.8  481.8 626  479 626  C 476.2 626  474 623.8  474 621  C 474 618.2  476.2 616  479 616  Z " fill-rule="nonzero" fill="#ff0000" stroke="none" />
    <path d="M 479 616.5  C 481.52 616.5  483.5 618.48  483.5 621  C 483.5 623.52  481.52 625.5  479 625.5  C 476.48 625.5  474.5 623.52  474.5 621  C 474.5 618.48  476.48 616.5  479 616.5  Z " stroke-width="1" stroke="#797979" fill="none" />
  </g>
</svg>