<?xml version="1.0" encoding="utf-8"?>
<svg version="1.1" xmlns:xlink="http://www.w3.org/1999/xlink" width="10px" height="10px" xmlns="http://www.w3.org/2000/svg">
  <g transform="matrix(1 0 0 1 -528 -632 )">
    <path d="M 533 632  C 535.8 632  538 634.2  538 637  C 538 639.8  535.8 642  533 642  C 530.2 642  528 639.8  528 637  C 528 634.2  530.2 632  533 632  Z " fill-rule="nonzero" fill="#00ff00" stroke="none" />
    <path d="M 533 632.5  C 535.52 632.5  537.5 634.48  537.5 637  C 537.5 639.52  535.52 641.5  533 641.5  C 530.48 641.5  528.5 639.52  528.5 637  C 528.5 634.48  530.48 632.5  533 632.5  Z " stroke-width="1" stroke="#797979" fill="none" />
  </g>
</svg>