<?xml version="1.0" encoding="utf-8"?>
<svg version="1.1" xmlns:xlink="http://www.w3.org/1999/xlink" width="20px" height="18px" xmlns="http://www.w3.org/2000/svg">
  <g transform="matrix(1 0 0 1 -246 -276 )">
    <path d="M 19.8970540364583 3.11350446428571  C 19.8970540364583 3.80524553571428  19.2093912760417 4.37142857142857  18.3687337239583 4.37142857142857  L 1.73258463541669 4.37142857142857  C 0.891927083333314 4.37142857142857  0.203857421875 3.80524553571428  0.203857421875 3.11350446428571  L 0.203857421875 1.35770089285717  C 0.203857421875 0.665959821428544  0.891927083333314 0.0997767857143117  1.73258463541669 0  L 18.3683268229167 0  C 19.208984375 0.0997767857143117  19.8970540364583 0.665959821428544  19.8970540364583 1.35770089285717  L 19.8970540364583 3.11350446428571  Z M 19.3623860677083 17.2995535714286  C 19.36279296875 17.6213169642857  19.0425618489583 17.88515625  18.6507161458333 17.88515625  L 8.14778645833331 17.88515625  C 7.75634765625 17.88515625  7.43611653645831 17.6216517857143  7.43611653645831 17.2995535714286  C 7.43611653645831 16.9774553571428  7.75634765625 16.7139508928572  8.14778645833331 16.7139508928572  L 18.6507161458333 16.7139508928572  C 19.0421549479167 16.7139508928572  19.3623860677083 16.9774553571428  19.3623860677083 17.2995535714286  Z " fill-rule="nonzero" fill="#d58f90" stroke="none" transform="matrix(1 0 0 1 246 276 )" />
  </g>
</svg>