<?xml version="1.0" encoding="utf-8"?>
<svg version="1.1" xmlns:xlink="http://www.w3.org/1999/xlink" width="41px" height="42px" xmlns="http://www.w3.org/2000/svg">
  <g transform="matrix(1 0 0 1 -41 -22 )">
    <path d="M 0.0699516633637245 20.2368433014997  C 0.0699516633637245 25.9802179455921  2.48916922816969 31.1601201717447  6.36825795084914 34.8437354072739  C 6.33119826773202 35.4856583204883  6.24647790467236 36.1085760805332  6.08483460597006 36.7476352035441  C 5.96016337884083 37.2414220598628  6.03209245647474 38.6600395889035  5.59771442126279 38.959088711377  C 4.70179877219513 39.5748903866737  2.88368401085614 39.1079190204432  1.85030584923351 39.1502684028482  C 0.020100694820826 39.2257683263977  0.0129165482118481 42.0473827106415  1.85030584923351 41.971882787092  C 3.63425210840779 41.8985524015753  5.6660514255922 42.3373197733762  7.23710163281714 41.256629488361  C 8.25619911276576 40.5561290482547  8.54102424234912 39.3766813919757  8.7084499029562 38.2283015203296  C 8.77328244552515 37.781810593131  8.84941687727166 37.3451259778418  8.92563892056216 36.9106109005855  C 12.2165037367445 39.1559092017339  16.2024785431187 40.4735998214779  20.5003504461761 40.4735998214779  C 24.7768451324944 40.4735998214779  28.7450347954342 39.1699678081882  32.0259118955991 36.9451499460714  C 32.0273136803033 37.1864025753449  32.0259118955991 37.4276552046184  32.0401925772731 37.6696020860625  C 32.1085295816026 38.8010595610508  32.7039376347087 39.6623661601657  33.6852745391882 40.2133420390352  C 35.3617214338596 41.1550951084149  37.4896306148253 40.8306190001942  39.3277208081991 40.914536731312  C 41.1651101092207 40.9984544624298  41.1565241779076 38.176840078186  39.3277208081991 38.0929223470681  C 38.1242010281049 38.0379028625504  36.9035093853844 38.1711992793001  35.7127808907161 37.9447862901726  C 34.8710091758478 37.7846743833345  34.8510337438131 37.643567629666  34.8760030338566 36.823221908615  C 34.8987820352997 36.0613669329344  34.9315487527603 35.3179096397741  34.9237513253431 34.5673362618653  C 38.6333993219033 30.9034204316762  40.9300483366363 25.8358134941134  40.9300483366363 20.2369300830211  C 40.9300483366363 16.1222710310883  39.6873661963688 12.2975490418906  37.5579676191548 9.10277411596496  C 37.7580723856784 8.88130767355267  37.8934322211771 8.58356027389902  37.9033323256504 8.20059342030765  C 37.9552859712496 6.27126663829051  39.4017525628893 3.52298263956322  36.6221887175616 2.70055416200057  C 35.5375578026919 2.37954931463253  34.4651048924399 2.47483542504347  33.3576949761269 2.60813184179312  C 32.5259109772761 2.70758346522746  31.6827374777037 2.75696215085941  30.8387754742353 2.78516614528871  C 27.8049629281844 1.0179472451  24.2733415890569 0  20.4996495538239 0  C 16.9395544628925 0  13.5931439278066 0.903655981519705  10.6783078585241 2.49010897279607  C 8.4705845609634 2.1586035613484  6.2607585863463 1.77338038820267  4.05312290032961 2.34336142024165  C 3.44422266944554 2.50069631839722  3.00414988387274 3.08334745254899  3.00765434563326 3.7040956745609  C 3.01764206165066 5.27649005938338  3.88788752832272 6.65761797121331  3.89787524434016 8.20111410943559  C 3.89857613669227 8.27869678949708  3.91066652976588 8.34786166199001  3.92065424578328 8.41841503882438  C 1.50073578862524 11.7444036249882  0.0699516633637245 15.8244368499135  0.0699516633637245 20.2368433014997  Z M 24.1458667925193 7.47527346510344  C 24.1458667925193 6.50601065346473  24.9391893235489 5.72089823007025  25.9177226586199 5.72089823007025  C 26.8962559936909 5.72089823007025  27.6888776323684 6.50670490563539  27.6888776323684 7.47527346510344  C 27.6888776323684 8.44384202457172  26.8955551013389 9.23034295230741  25.9177226586199 9.23034295230741  C 24.9391893235489 9.23034295230741  24.1458667925193 8.44453627674216  24.1458667925193 7.47527346510344  Z M 11.5919210394823 7.47527346510344  C 11.5919210394823 6.50601065346473  12.3846302897037 5.72089823007025  13.3630760132308 5.72089823007025  C 14.3416093483019 5.72089823007025  15.1349318793314 6.50670490563539  15.1349318793314 7.47527346510344  C 15.1349318793314 8.44384202457172  14.3416093483019 9.23034295230741  13.3630760132308 9.23034295230741  C 12.3845426781597 9.23034295230741  11.5919210394823 8.44453627674216  11.5919210394823 7.47527346510344  Z M 2.70285378401522 18.4599048709229  C 2.70285378401522 14.1498138329745  4.28590677276972 12.472327025832  6.90452821174722 11.929855736052  L 9.79588438723431 23.7934103898142  L 18.9363967740162 12.295205940815  C 19.38435459855 12.3085702950984  19.8351159924922 12.318463388529  20.2916597483392 12.318463388529  C 21.1896780744632 12.318463388529  22.0713130418569 12.2888708897585  22.9330601887598 12.2422692128091  L 28.9130737368494 21.6686516217812  L 34.7741108081705 12.2506870203771  C 36.7310898667686 13.0280758883741  37.8805533242074 14.7887861744639  37.8805533242074 18.4597313078801  C 37.8805533242074 25.4962374011827  33.6667008918577 31.5542818415865  27.6034563769566 34.303954344655  L 20.4996495538239 26.1889275043701  L 14.9789833309898 35.071623682264  C 7.86168433007933 32.8403839875696  2.70285378401522 26.2476785943046  2.70285378401522 18.4599048709229  Z " fill-rule="nonzero" fill="#ffffff" stroke="none" transform="matrix(1 0 0 1 41 22 )" />
  </g>
</svg>