<?xml version="1.0" encoding="utf-8"?>
<svg version="1.1" xmlns:xlink="http://www.w3.org/1999/xlink" width="30px" height="30px" xmlns="http://www.w3.org/2000/svg">
  <g transform="matrix(1 0 0 1 -479 -276 )">
    <path d="M 29.9234693877551 15  C 29.9234693877551 6.77142857142854  23.2285714285715 0.0765306122448806  15 0.0765306122448806  C 6.77142857142854 0.0765306122448806  0.0765306122448806 6.77142857142854  0.0765306122448806 15  C 0.0765306122448806 23.2285714285715  6.77142857142854 29.9234693877551  15 29.9234693877551  C 20.6999962195802 29.94465048855  25.9085717757629 26.6997007787537  28.4020408163265 21.5739795918367  C 28.4781907206374 21.4174864366308  28.5177617893679 21.245727378645  28.5177617893679 21.0716902689446  C 28.5177617893679 20.4376899183736  28.0038029562656 19.9237310852712  27.3698026056945 19.9237310852712  C 26.9340187321299 19.9237310852712  26.5358114826096 20.1704818144488  26.3418367346939 20.5607142857143  C 24.2323002454621 24.8991732546994  19.8241099547758 27.6458148973578  15 27.6275510204081  C 8.03724489795923 27.6275510204081  2.37244897959187 21.9627551020408  2.37244897959187 15  C 2.37244897959187 8.03724489795923  8.03724489795923 2.37244897959187  15 2.37244897959187  C 21.9627551020408 2.37244897959187  27.6275510204081 8.03724489795923  27.6275510204081 15  C 27.6275510204081 15.6340003505711  28.1415098535106 16.1479591836735  28.7755102040816 16.1479591836735  C 29.4095105546527 16.1479591836735  29.9234693877551 15.6340003505711  29.9234693877551 15  Z " fill-rule="nonzero" fill="#6488e5" stroke="none" transform="matrix(1 0 0 1 479 276 )" />
  </g>
</svg>