<?xml version="1.0" encoding="utf-8"?>
<svg version="1.1" xmlns:xlink="http://www.w3.org/1999/xlink" width="12px" height="12px" xmlns="http://www.w3.org/2000/svg">
  <g transform="matrix(1 0 0 1 -488 -285 )">
    <path d="M 4.875 10.875  C 4.875 11.496  5.37900000000002 12  6 12  C 6.62132034355966 12  7.125 11.4963203435597  7.125 10.875  L 7.125 7.125  L 10.875 7.125  C 11.4963203435597 7.125  12 6.62132034355966  12 6  C 12 5.37867965644034  11.4963203435597 4.875  10.875 4.875  L 7.125 4.875  L 7.125 1.125  C 7.125 0.50367965644034  6.62132034355966 0  6 0  C 5.37867965644034 0  4.875 0.50367965644034  4.875 1.125  L 4.875 4.875  L 1.125 4.875  C 0.50367965644034 4.875  0 5.37867965644034  0 6  C 0 6.62132034355966  0.50367965644034 7.125  1.125 7.125  L 4.875 7.125  L 4.875 10.875  Z " fill-rule="nonzero" fill="#6488e5" stroke="none" transform="matrix(1 0 0 1 488 285 )" />
  </g>
</svg>