<?xml version="1.0" encoding="utf-8"?>
<svg version="1.1" xmlns:xlink="http://www.w3.org/1999/xlink" width="30px" height="30px" xmlns="http://www.w3.org/2000/svg">
  <g transform="matrix(1 0 0 1 -428 -276 )">
    <path d="M 29.4802716587611 18.8809044712611  C 29.1138772321428 20.2488341587612  28.5461906738282 21.5682610212053  27.7939150041852 22.8034592633929  C 27.5769906529018 23.1564699358259  27.1174807826451 23.2691078404018  26.763363734654 23.0543962751116  C 26.410353062221 22.8385782993861  26.2977151576451 22.3768556431361  26.5129620884487 22.0227385951451  C 27.192180140904 20.9107782156808  27.7030123814175 19.7218343331473  28.0336810477121 18.492203717913  C 28.9655135672433 15.0113137555804  28.4859458356585 11.3753860560826  26.6852738560268 8.25360975864953  C 24.882924421038 5.13408192661831  21.9736112234933 2.90120298549107  18.4921502162389 1.96879942103794  C 15.0112602539062 1.03696690150673  11.3753325544085 1.51264439174105  8.25412730189737 3.3149938267299  C 5.13402845982148 5.11734326171876  2.90118516322548 8.02665645926339  1.96878163364954 11.507546421596  C 0.0426589355469105 18.6946735839844  4.32211460658482 26.1076118861607  11.5080996442522 28.03319921875  C 15.0999857700892 28.9957252022879  18.8379514160156 28.4508803013393  22.0283240792411 26.5013092564174  C 22.3824411272321 26.285491280692  22.843628452846 26.3981292201451  23.0583043387277 26.7500334821428  C 23.2746933244978 27.1041505301339  23.1636971609933 27.565873186384  22.8095801130022 27.7805847516741  C 20.4105281110491 29.2466621791295  17.7326651088169 29.996725062779  15.0151861397879 29.996725062779  C 13.7175302385602 29.996725062779  12.4109161202567 29.826090750558  11.1210763462611 29.4792187848772  C 3.13541918945316 27.3405973423549  -1.61917860630581 19.1045385393415  0.520549211774551 11.1211298479353  C 1.55613281249998 7.25264554268972  4.03827134486608 4.01990876116071  7.50520647321423 2.01790897042412  C 10.9738547363281 0.0159091796875259  15.0129376743862 -0.514980887276806  18.8808509347098 0.520602713448682  C 26.8654373604911 2.65922419084819  31.6200351911273 10.8952473144531  29.4802716587611 18.8809044712611  Z M 15.000160609654 15.7507766810826  C 14.5863697335379 15.7507766810826  14.2517751464844 15.4139336286272  14.2517751464844 14.9996073869978  L 14.2517751464844 6.00627633231028  C 14.2517751464844 5.59195009068083  14.5863697335379 5.25735553850444  15.000160609654 5.25735553850444  C 15.4144868512835 5.25735553850444  15.750758858817 5.59195012555801  15.750758858817 6.00627633231028  L 15.750758858817 14.999607421875  C 15.750758858817 15.4139693429129  15.4144868512835 15.7507766810826  15.000160609654 15.7507766810826  Z M 22.4950790666853 15.7507766810826  L 15.000160609654 15.7507766810826  C 14.5863697335379 15.7507766810826  14.2517751464844 15.4139336286272  14.2517751464844 14.9996073869978  C 14.2517751464844 14.5852811453683  14.5863697335379 14.25179296875  15.000160609654 14.25179296875  L 22.4950790666853 14.25179296875  C 22.9094053083147 14.25179296875  23.2456773158482 14.5852811453683  23.2456773158482 14.9996073869978  C 23.2456773158482 15.4139336286272  22.9094052734375 15.7507766810826  22.4950790666853 15.7507766810826  Z " fill-rule="nonzero" fill="#6488e5" stroke="none" transform="matrix(1 0 0 1 428 276 )" />
  </g>
</svg>