<?xml version="1.0" encoding="utf-8"?>
<svg version="1.1" xmlns:xlink="http://www.w3.org/1999/xlink" width="30px" height="18px" xmlns="http://www.w3.org/2000/svg">
  <g transform="matrix(1 0 0 1 -429 -335 )">
    <path d="M 16.1575520833334 17.3035866477273  C 15.8661634371954 17.6191157738989  15.4703347487016 17.7961823879313  15.0577059659092 17.7955823863637  C 14.6450771831167 17.7961823879313  14.2492484946227 17.6191157738989  13.9578598484849 17.3035866477273  L 0.594756155303003 2.87137073863636  C -0.0126657196970541 2.21535511363635  -0.0126657196970541 1.15171874999999  0.594756155303003 0.495703125000006  C 1.202178030303 -0.160312500000003  2.1870265151515 -0.160312500000003  2.79444839015144 0.495703125000006  L 15.0577059659092 13.7400213068182  L 27.3209635416667 0.495703125000006  C 27.9283854166666 -0.160312500000003  28.9132930871212 -0.160312500000003  29.5207149621212 0.495703125000006  C 30.1280776515152 1.15171874999999  30.1280776515152 2.21535511363635  29.5207149621212 2.87137073863636  L 16.1575520833334 17.3035866477273  Z " fill-rule="nonzero" fill="#6488e5" stroke="none" transform="matrix(1 0 0 1 429 335 )" />
  </g>
</svg>