<?xml version="1.0" encoding="utf-8"?>
<svg version="1.1" xmlns:xlink="http://www.w3.org/1999/xlink" width="15px" height="15px" xmlns="http://www.w3.org/2000/svg">
  <g transform="matrix(1 0 0 1 -494 -327 )">
    <path d="M 14.3882068452381 14.9180617559524  C 13.3455171130953 14.9202938988095  11.4506138392857 14.9210379464286  9.38792782738096 14.9210379464286  C 5.26292782738096 14.9210379464286  0.465773809523853 14.9180617559524  0.465773809523853 14.9180617559524  C 0.209032652289125 14.9179590440789  0.000971686423440588 14.7097731666868  0 14.4530319940476  L 0 0.531994047619037  C 0.00102306547614717 0.275165201901586  0.209223981663513 0.0669642857142776  0.466052827380963 0.0669642857142776  C 8.39853050595241 0.0669642857142776  14.8521205357143 6.52036830357144  14.8522135416666 14.4528459821428  C 14.8522144078104 14.7093061250075  14.6446661219604 14.9173952261943  14.3882068452381 14.9180617559524  Z M 1 1.0049293154762  L 1 13.98828125  C 2.92150297619048 13.9893043154762  10.7706473214286 13.9933035714286  13.9143415178571 13.9888392857143  C 13.6741071428571 6.93759300595241  7.98214285714289 1.24581473214283  1 1.0049293154762  Z " fill-rule="nonzero" fill="#6488e5" stroke="none" transform="matrix(1 0 0 1 494 327 )" />
  </g>
</svg>