<?xml version="1.0" encoding="utf-8"?>
<svg version="1.1" xmlns:xlink="http://www.w3.org/1999/xlink" width="25px" height="25px" xmlns="http://www.w3.org/2000/svg">
  <g transform="matrix(1 0 0 1 -479 -332 )">
    <path d="M 24.9441557949029 12.5086388221154  C 24.9470949635922 19.2844801682692  19.3834382584952 24.7994290865385  12.5419068567961 24.8024338942308  L 12.5363129550971 24.8024338942308  C 5.69781553398059 24.8024338942308  0.131693719660234 19.2922738882211  0.128659739077648 12.5194373497596  C 0.127142748786355 9.23715444711542  1.41639487257282 6.15065354567309  3.75891231796118 3.82868840144232  C 6.10133495145635 1.50672325721155  9.21656932645635 0.227144681490415  12.5308138652913 0.225642277644226  L 12.5417172330098 0.225642277644226  C 12.8033850126984 0.225642194715647  13.0155673648054 0.435616218188784  13.0157766990292 0.694767878605774  C 13.0188106796116 4.04747596153845  13.016630006068 10.2843299278846  13.0159663228155 12  L 24.4700963288835 12  C 24.7318381076584 12.0393253999351  24.9440510981914 12.2494138119513  24.9441557949029 12.5086388221154  Z M 12.0676577669902 12.5087327223558  C 12.0676577669902 12.4331430288461  12.0709761832525 5.20667442908655  12.0680370145631 1.17403470552887  C 9.18110967839812 1.28821739783655  6.48371131674753 2.45643028846155  4.42970646237859 4.49246920072113  C 2.26619387135918 6.63705679086536  1.07554611650482 9.48758638822113  1.07687348300976 12.5191556490385  C 1.07962302791259 18.7744140625  6.22041868932035 23.863525390625  12.5364077669902 23.863525390625  L 12.5364077669902 24.3330265925481  L 12.5415276092233 23.863525390625  C 18.7013614987864 23.8608022836538  23.7395706917475 19.0195875901442  23.9865556735436 13  L 12.5417172330098 13  C 12.5416223420408 12.9784217812277  12.5415274510584 12.9784218094617  12.5414325600724 12.9784218094617  C 12.2797738359651 12.9784218094617  12.0676575297326 12.7683450830968  12.0676575297326 12.5092023082598  Z " fill-rule="nonzero" fill="#6488e5" stroke="none" transform="matrix(1 0 0 1 479 332 )" />
  </g>
</svg>