<?xml version="1.0" encoding="utf-8"?>
<svg version="1.1" xmlns:xlink="http://www.w3.org/1999/xlink" width="30px" height="30px" xmlns="http://www.w3.org/2000/svg">
  <g transform="matrix(1 0 0 1 -527 -327 )">
    <path d="M 14 1.23511903599331  C 13.8839285714286 0.618729806271404  14.3836107702781 0.119047607421862  15 0.119047607421862  C 15.6163892297219 0.119047607421862  16.1160714285714 0.618729806271404  16 1.23511903599331  L 16 14  L 28.7648809640067 14  C 28.7648809640067 13.8839285714286  28.7648809640067 13.8839285714286  28.7648809640067 13.8839285714286  C 29.3812701937286 13.8839285714286  29.8809523925781 14.3836107702782  29.8809523925781 15  C 29.8809523925781 15.6163892297218  29.3812701937286 16.1160714285714  28.7648809640067 16.1160714285714  C 28.7648809640067 16.1160714285714  28.7648809640067 16.1160714285714  28.7648809640067 16  L 16 16  L 16 28.7648809640067  C 16.1160714285714 28.7648809640067  16.1160714285714 28.7648809640067  16.1160714285714 28.7648809640067  C 16.1160714285714 29.3812701937286  15.6163892297219 29.8809523925781  15 29.8809523925781  C 14.3836107702781 29.8809523925781  13.8839285714286 29.3812701937286  14 28.7648809640067  L 14 16  L 1.23511903599331 16  C 1.23511903599331 16.1160714285714  1.23511903599331 16.1160714285714  1.23511903599331 16.1160714285714  C 0.618729806271404 16.1160714285714  0.119047607421862 15.6163892297218  0.119047607421862 15  C 0.119047607421862 14.3836107702782  0.618729806271404 13.8839285714286  1.23511903599331 13.8839285714286  C 1.23511903599331 13.8839285714286  1.23511903599331 13.8839285714286  1.23511903599331 14  L 14 14  L 14 1.23511903599331  Z " fill-rule="nonzero" fill="#6488e5" stroke="none" transform="matrix(1 0 0 1 527 327 )" />
  </g>
</svg>