<?xml version="1.0" encoding="utf-8"?>
<svg version="1.1" xmlns:xlink="http://www.w3.org/1999/xlink" width="26px" height="26px" xmlns="http://www.w3.org/2000/svg">
  <g transform="matrix(1 0 0 1 -433 -408 )">
    <path d="M 3.36161616161616 25.6714285714286  C 2.96767676767678 25.8857142857142  2.46868686868686 25.9857142857142  1.969696969697 25.9857142857142  C 1.47070707070708 25.9857142857142  0.97171717171716 25.8857142857142  0.577777777777726 25.6714285714286  C -0.183838383838463 25.2571428571429  -0.183838383838463 24.5714285714286  0.577777777777726 24.1571428571428  L 21.0888888888889 13  L 0.577777777777726 1.84285714285721  C -0.183838383838463 1.42857142857139  -0.183838383838463 0.742857142857133  0.577777777777726 0.328571428571422  C 1.33939393939386 -0.0857142857142321  2.59999999999997 -0.0857142857142321  3.36161616161616 0.328571428571422  L 25.2646464646465 12.2428571428572  C 26.0262626262626 12.6571428571428  26.0262626262626 13.3428571428572  25.2646464646465 13.7571428571428  L 3.36161616161616 25.6714285714286  Z " fill-rule="nonzero" fill="#6488e5" stroke="none" transform="matrix(1 0 0 1 433 408 )" />
  </g>
</svg>