<?xml version="1.0" encoding="utf-8"?>
<svg version="1.1" xmlns:xlink="http://www.w3.org/1999/xlink" width="20px" height="20px" xmlns="http://www.w3.org/2000/svg">
  <g transform="matrix(1 0 0 1 -645 -336 )">
    <path d="M 655 336  C 660.6 336  665 340.4  665 346  C 665 351.6  660.6 356  655 356  C 649.4 356  645 351.6  645 346  C 645 340.4  649.4 336  655 336  Z " fill-rule="nonzero" fill="#00ff00" stroke="none" />
    <path d="M 655 336.5  C 660.32 336.5  664.5 340.68  664.5 346  C 664.5 351.32  660.32 355.5  655 355.5  C 649.68 355.5  645.5 351.32  645.5 346  C 645.5 340.68  649.68 336.5  655 336.5  Z " stroke-width="1" stroke="#797979" fill="none" />
  </g>
</svg>