<?xml version="1.0" encoding="utf-8"?>
<svg version="1.1" xmlns:xlink="http://www.w3.org/1999/xlink" width="20px" height="20px" xmlns="http://www.w3.org/2000/svg">
  <g transform="matrix(1 0 0 1 -645 -233 )">
    <path d="M 655 233  C 660.6 233  665 237.4  665 243  C 665 248.6  660.6 253  655 253  C 649.4 253  645 248.6  645 243  C 645 237.4  649.4 233  655 233  Z " fill-rule="nonzero" fill="#ff0000" stroke="none" />
    <path d="M 655 233.5  C 660.32 233.5  664.5 237.68  664.5 243  C 664.5 248.32  660.32 252.5  655 252.5  C 649.68 252.5  645.5 248.32  645.5 243  C 645.5 237.68  649.68 233.5  655 233.5  Z " stroke-width="1" stroke="#797979" fill="none" />
  </g>
</svg>